<svg id="Logo-white" xmlns="http://www.w3.org/2000/svg" width="1000" height="352.191" viewBox="0 0 1000 352.191">
  <g id="Group_1717" data-name="Group 1717" transform="translate(0)">
    <g id="Group_1714" data-name="Group 1714" transform="translate(4.088 8.176)" opacity="0.28">
      <path id="Path_8621" data-name="Path 8621" d="M55.875,208.934,0,30.7H32.181L71.789,156.242,108.214,30.7H140.4L180,156.242,216.428,30.7h31.828L195.917,208.934H164.089L124.481,83.392,87.7,208.934Z" transform="translate(0 84.864)" fill="#5a5a5a"/>
      <path id="Path_8622" data-name="Path 8622" d="M140.892,44.1a65.324,65.324,0,0,1,26.169,5.3,62.975,62.975,0,0,1,21.218,14.5,72.951,72.951,0,0,1,14.5,21.218,65.322,65.322,0,0,1,5.3,26.169,63.641,63.641,0,0,1-5.3,25.816,62.973,62.973,0,0,1-14.5,21.218,72.953,72.953,0,0,1-21.218,14.5,67.2,67.2,0,0,1-52.339,0,62.974,62.974,0,0,1-21.218-14.5A72.952,72.952,0,0,1,79,137.107a66.331,66.331,0,0,1,0-51.985A62.974,62.974,0,0,1,93.5,63.9a72.953,72.953,0,0,1,21.218-14.5A64.107,64.107,0,0,1,140.892,44.1Zm0,30.413a34.95,34.95,0,0,0-25.816,10.609,36.714,36.714,0,0,0,0,51.631,36.69,36.69,0,0,0,11.67,8.134,36.779,36.779,0,0,0,28.291,0,38.081,38.081,0,0,0,12.024-8.134,34.95,34.95,0,0,0,10.609-25.816,34.95,34.95,0,0,0-10.609-25.816C159.281,78.4,150.44,74.513,140.892,74.513Z" transform="translate(193.084 118.851)" fill="#5a5a5a"/>
      <path id="Path_8623" data-name="Path 8623" d="M164.627,47.89A53.017,53.017,0,0,1,185.138,44V74.413a34.95,34.95,0,0,0-25.816,10.609,36.7,36.7,0,0,0-10.609,25.816v64.009H118.3V47.536h30.413v9.9A54.431,54.431,0,0,1,164.627,47.89Z" transform="translate(309.197 116.881)" fill="#5a5a5a"/>
      <path id="Path_8624" data-name="Path 8624" d="M275.53,30.6V209.188H245.117V145.533c0-10.256-3.536-19.1-10.609-25.816a36.714,36.714,0,0,0-51.631,0,36.714,36.714,0,0,0,0,51.631,36.689,36.689,0,0,0,11.67,8.134,38.806,38.806,0,0,0,14.146,2.829,32.542,32.542,0,0,0,13.438-2.475l10.963,27.23a60.094,60.094,0,0,1-26.877,6.012,62.442,62.442,0,0,1-25.816-5.3c-7.78-3.536-14.853-8.134-20.511-14.5a65.758,65.758,0,0,1-13.438-21.218,70.7,70.7,0,0,1,0-51.985A64.668,64.668,0,0,1,180.4,84.353a62.442,62.442,0,0,1,25.816-5.3,60.586,60.586,0,0,1,21.926,3.89,65.968,65.968,0,0,1,16.975,9.548V30.6Z" transform="translate(370.707 84.61)" fill="#5a5a5a"/>
      <g id="Group_1567" data-name="Group 1567" transform="translate(684.355)">
        <path id="Path_8625" data-name="Path 8625" d="M351.136,30.7V137.853a72.122,72.122,0,0,1-6.012,29,73.511,73.511,0,0,1-15.914,23.694,77.552,77.552,0,0,1-23.694,15.914,73.4,73.4,0,0,1-29,6.012,72.125,72.125,0,0,1-29-6.012,73.513,73.513,0,0,1-23.694-15.914,77.548,77.548,0,0,1-15.914-23.694,73.394,73.394,0,0,1-6.012-29V30.7h30.413V137.853a45.274,45.274,0,0,0,3.183,16.975,43.045,43.045,0,0,0,24.048,24.047,45.277,45.277,0,0,0,16.975,3.183,42.46,42.46,0,0,0,31.474-13.085,43.087,43.087,0,0,0,9.548-14.5,45.277,45.277,0,0,0,3.183-16.975V30.7Z" transform="translate(-201.9 84.863)" fill="#5a5a5a"/>
        <path id="Path_8626" data-name="Path 8626" d="M321.667,44.1a62.442,62.442,0,0,1,25.816,5.3c7.78,3.536,14.853,8.134,20.511,14.5a65.761,65.761,0,0,1,13.438,21.218,71.737,71.737,0,0,1,4.951,26.169,69.871,69.871,0,0,1-4.951,25.816,64.669,64.669,0,0,1-33.949,35.718,62.444,62.444,0,0,1-25.816,5.3,60.54,60.54,0,0,1-27.23-6.012l10.963-27.23a34.261,34.261,0,0,0,13.792,2.475,38.807,38.807,0,0,0,14.146-2.829,38.082,38.082,0,0,0,12.024-8.134,34.951,34.951,0,0,0,10.609-25.816,34.951,34.951,0,0,0-10.609-25.816,36.7,36.7,0,0,0-25.816-10.609A34.95,34.95,0,0,0,293.73,84.769a35.517,35.517,0,0,0-10.609,25.816V225.163H252V47.283h30.413V57.538a65.967,65.967,0,0,1,16.975-9.548A64.012,64.012,0,0,1,321.667,44.1Z" transform="translate(-74.826 118.851)" fill="#5a5a5a"/>
        <path id="Path_8627" data-name="Path 8627" d="M369.1,70.728,300.145,2.122A8.493,8.493,0,0,0,294.84,0a6.671,6.671,0,0,0-5.3,2.122l-68.96,68.606a7.521,7.521,0,0,0-2.475,5.3,6.363,6.363,0,0,0,2.475,5.3l10.609,10.609c3.183,3.183,7.78,3.183,10.609,0l30.767-30.413c2.475-2.122,7.073-.707,7.073,3.183V190.258a7.426,7.426,0,0,0,7.78,7.78H302.62c4.6,0,7.183-3.183,7.183-7.78l.6-126.249c0-3.183,3.89-5.3,7.073-3.183L348.24,91.239c3.183,3.183,7.78,3.183,10.609,0L369.458,80.63a7.521,7.521,0,0,0,2.476-5.3A8.207,8.207,0,0,0,369.1,70.728Z" transform="translate(-160.81 0)" fill="#5a5a5a"/>
      </g>
    </g>
    <g id="Group_1715" data-name="Group 1715" transform="translate(0)">
      <path id="Path_8621-2" data-name="Path 8621" d="M55.875,208.934,0,30.7H32.181L71.789,156.242,108.214,30.7H140.4L180,156.242,216.428,30.7h31.828L195.917,208.934H164.089L124.481,83.392,87.7,208.934Z" transform="translate(0 84.864)" fill="#fff"/>
      <path id="Path_8622-2" data-name="Path 8622" d="M140.892,44.1a65.324,65.324,0,0,1,26.169,5.3,62.975,62.975,0,0,1,21.218,14.5,72.951,72.951,0,0,1,14.5,21.218,65.322,65.322,0,0,1,5.3,26.169,63.641,63.641,0,0,1-5.3,25.816,62.973,62.973,0,0,1-14.5,21.218,72.953,72.953,0,0,1-21.218,14.5,67.2,67.2,0,0,1-52.339,0,62.974,62.974,0,0,1-21.218-14.5A72.952,72.952,0,0,1,79,137.107a66.331,66.331,0,0,1,0-51.985A62.974,62.974,0,0,1,93.5,63.9a72.953,72.953,0,0,1,21.218-14.5A64.107,64.107,0,0,1,140.892,44.1Zm0,30.413a34.95,34.95,0,0,0-25.816,10.609,36.714,36.714,0,0,0,0,51.631,36.69,36.69,0,0,0,11.67,8.134,36.779,36.779,0,0,0,28.291,0,38.081,38.081,0,0,0,12.024-8.134,34.95,34.95,0,0,0,10.609-25.816,34.95,34.95,0,0,0-10.609-25.816C159.281,78.4,150.44,74.513,140.892,74.513Z" transform="translate(193.084 118.851)" fill="#fff"/>
      <path id="Path_8623-2" data-name="Path 8623" d="M164.627,47.89A53.017,53.017,0,0,1,185.138,44V74.413a34.95,34.95,0,0,0-25.816,10.609,36.7,36.7,0,0,0-10.609,25.816v64.009H118.3V47.536h30.413v9.9A54.431,54.431,0,0,1,164.627,47.89Z" transform="translate(309.197 116.881)" fill="#fff"/>
      <path id="Path_8624-2" data-name="Path 8624" d="M275.53,30.6V209.188H245.117V145.533c0-10.256-3.536-19.1-10.609-25.816a36.714,36.714,0,0,0-51.631,0,36.714,36.714,0,0,0,0,51.631,36.689,36.689,0,0,0,11.67,8.134,38.806,38.806,0,0,0,14.146,2.829,32.542,32.542,0,0,0,13.438-2.475l10.963,27.23a60.094,60.094,0,0,1-26.877,6.012,62.442,62.442,0,0,1-25.816-5.3c-7.78-3.536-14.853-8.134-20.511-14.5a65.758,65.758,0,0,1-13.438-21.218,70.7,70.7,0,0,1,0-51.985A64.668,64.668,0,0,1,180.4,84.353a62.442,62.442,0,0,1,25.816-5.3,60.586,60.586,0,0,1,21.926,3.89,65.968,65.968,0,0,1,16.975,9.548V30.6Z" transform="translate(370.707 84.61)" fill="#fff"/>
      <g id="Group_1567-2" data-name="Group 1567" transform="translate(684.355)">
        <path id="Path_8625-2" data-name="Path 8625" d="M351.136,30.7V137.853a72.122,72.122,0,0,1-6.012,29,73.511,73.511,0,0,1-15.914,23.694,77.552,77.552,0,0,1-23.694,15.914,73.4,73.4,0,0,1-29,6.012,72.125,72.125,0,0,1-29-6.012,73.513,73.513,0,0,1-23.694-15.914,77.548,77.548,0,0,1-15.914-23.694,73.394,73.394,0,0,1-6.012-29V30.7h30.413V137.853a45.274,45.274,0,0,0,3.183,16.975,43.045,43.045,0,0,0,24.048,24.047,45.277,45.277,0,0,0,16.975,3.183,42.46,42.46,0,0,0,31.474-13.085,43.087,43.087,0,0,0,9.548-14.5,45.277,45.277,0,0,0,3.183-16.975V30.7Z" transform="translate(-201.9 84.863)" fill="#ffda70"/>
        <path id="Path_8626-2" data-name="Path 8626" d="M321.667,44.1a62.442,62.442,0,0,1,25.816,5.3c7.78,3.536,14.853,8.134,20.511,14.5a65.761,65.761,0,0,1,13.438,21.218,71.737,71.737,0,0,1,4.951,26.169,69.871,69.871,0,0,1-4.951,25.816,64.669,64.669,0,0,1-33.949,35.718,62.444,62.444,0,0,1-25.816,5.3,60.54,60.54,0,0,1-27.23-6.012l10.963-27.23a34.261,34.261,0,0,0,13.792,2.475,38.807,38.807,0,0,0,14.146-2.829,38.082,38.082,0,0,0,12.024-8.134,34.951,34.951,0,0,0,10.609-25.816,34.951,34.951,0,0,0-10.609-25.816,36.7,36.7,0,0,0-25.816-10.609A34.95,34.95,0,0,0,293.73,84.769a35.517,35.517,0,0,0-10.609,25.816V225.163H252V47.283h30.413V57.538a65.967,65.967,0,0,1,16.975-9.548A64.012,64.012,0,0,1,321.667,44.1Z" transform="translate(-74.826 118.851)" fill="#ffda70"/>
        <path id="Path_8627-2" data-name="Path 8627" d="M369.1,70.728,300.145,2.122A8.493,8.493,0,0,0,294.84,0a6.671,6.671,0,0,0-5.3,2.122l-68.96,68.606a7.521,7.521,0,0,0-2.475,5.3,6.363,6.363,0,0,0,2.475,5.3l10.609,10.609c3.183,3.183,7.78,3.183,10.609,0l30.767-30.413c2.475-2.122,7.073-.707,7.073,3.183V190.258a7.426,7.426,0,0,0,7.78,7.78H302.62c4.6,0,7.183-3.183,7.183-7.78l.6-126.249c0-3.183,3.89-5.3,7.073-3.183L348.24,91.239c3.183,3.183,7.78,3.183,10.609,0L369.458,80.63a7.521,7.521,0,0,0,2.476-5.3A8.207,8.207,0,0,0,369.1,70.728Z" transform="translate(-160.81 0)" fill="#ffda70"/>
      </g>
    </g>
  </g>
</svg>
